<svg width="191" height="33" viewBox="0 0 191 33" fill="none" xmlns="http://www.w3.org/2000/svg">
<path d="M6.51847 4.8153C6.71996 2.16286 9.03155 0.0157081 11.6914 0.00544831C14.0007 -0.00367151 16.3103 0.000603158 18.6199 0.00430809C19.7374 0.00601805 20.5453 0.800013 20.5772 1.92118C20.5881 2.30592 20.5658 2.69181 20.5901 3.07541C20.5966 3.18086 20.693 3.33105 20.7867 3.37237C21.4388 3.65936 22.0985 3.93011 22.7634 4.18575C22.8569 4.22166 23.0262 4.18546 23.1029 4.11763C23.3907 3.86285 23.6506 3.57728 23.9282 3.31081C24.6869 2.58151 25.9158 2.58151 26.661 3.31908C27.6665 4.31428 28.6662 5.31575 29.664 6.31893C30.4426 7.10152 30.456 8.26601 29.6974 9.06457C29.4323 9.34358 29.1445 9.60121 28.8888 9.8882C28.8193 9.96629 28.7763 10.1356 28.8119 10.2282C29.0638 10.8825 29.3451 11.5255 29.6036 12.1773C29.6788 12.3668 29.7894 12.4292 29.9872 12.4212C30.3375 12.4073 30.6891 12.4104 31.04 12.4198C32.256 12.4526 33.0423 13.2919 33.0036 14.5288C32.9628 15.8215 32.9369 17.1151 33.0019 18.407C33.0648 19.6641 32.2689 20.5364 31.0465 20.5709C30.6957 20.5809 30.344 20.5866 29.994 20.5695C29.7261 20.5564 29.6284 20.6872 29.5432 20.9939C29.3859 21.561 29.1596 22.1056 28.8683 22.6172C28.7321 22.8566 28.7446 22.9854 28.9045 23.1342C29.1695 23.3807 29.4221 23.6409 29.6768 23.8982C30.4039 24.6327 30.4791 25.7937 29.7709 26.5401C28.7281 27.6396 27.6528 28.7101 26.5542 29.7537C25.8417 30.4306 24.7259 30.4269 24.0089 29.7549C23.7108 29.4756 23.4184 29.1889 23.1396 28.8899C23.012 28.7528 22.8997 28.7249 22.7261 28.8004C22.0883 29.0777 21.4468 29.3476 20.8007 29.6053C20.6608 29.6611 20.5716 29.7985 20.5775 29.949C20.5901 30.2656 20.5818 30.5828 20.5807 30.9C20.5767 32.0559 19.6427 32.9924 18.4868 32.9933C16.2334 32.9944 13.9796 33.0101 11.7262 32.9893C10.1066 32.9742 8.7363 32.3472 7.74338 31.0639C7.34895 30.5543 6.2597 30.2719 6.23718 30.2682C3.96891 29.89 2.2541 27.9306 2.1706 25.6159C2.16347 25.4178 2.1287 25.2636 1.95514 25.1209C-0.573898 23.0358 -0.672506 19.12 1.75821 16.9147C2.00131 16.6942 2.00815 16.5494 1.89643 16.2664C0.794645 13.474 1.16941 10.8951 3.09911 8.58179C4.00055 7.50109 5.17558 6.81596 6.51306 6.4486C6.51277 5.8732 6.47857 5.3414 6.51847 4.8153ZM13.9959 28.4285C12.0009 28.6887 11.0485 27.6374 10.9293 27.5031C10.7287 27.2771 10.7372 27.0258 10.9191 26.7915C11.0767 26.5883 11.4272 26.529 11.6247 26.7123C12.6943 27.7046 13.9015 27.431 15.1139 27.1124C15.3738 27.044 15.6221 26.9323 15.8976 26.8325C15.3296 23.7535 12.6533 23.2678 11.8621 23.2393C11.4415 23.2242 11.1884 23.0005 11.212 22.6725C11.2357 22.3447 11.5281 22.1424 11.9294 22.1675C13.504 22.2652 14.8038 22.9056 15.8113 24.1268C15.8378 24.159 15.8746 24.1829 15.9412 24.2411V16.569H13.4889C13.3276 17.1245 13.2153 17.6666 13.0115 18.1716C12.7895 18.7216 12.356 19.1155 11.8308 19.3939C11.4911 19.5737 11.1949 19.4976 11.0442 19.2087C10.8986 18.9291 10.9889 18.6486 11.3041 18.4665C12.533 17.7566 12.2976 16.2384 12.2913 16.1595C12.254 15.6938 12.4427 15.4795 12.9078 15.4772C13.791 15.473 14.6742 15.4758 15.5576 15.4755C15.6796 15.4755 15.8016 15.4755 15.9447 15.4755V8.92406C15.2687 8.73454 14.5912 8.62054 13.9773 8.35749C12.5897 7.76328 11.855 6.6461 11.6729 5.16214C11.6182 4.71612 11.7969 4.46048 12.1314 4.42999C12.4666 4.39949 12.6738 4.62321 12.7148 5.06011C12.8414 6.40272 13.7978 7.38224 15.2715 7.67151C15.4804 7.71255 15.6942 7.72908 15.8885 7.75502C15.9253 7.70885 16.0829 5.90854 15.8694 4.595C15.3841 1.60769 12.1115 0.133981 9.55965 1.69119C8.17144 2.53819 7.30819 4.3405 7.56668 5.9453C7.86507 7.7972 8.87823 9.06514 10.7099 9.60976C11.2953 9.78389 11.3893 9.93921 11.2431 10.5394C11.0619 11.2832 11.0658 12.0171 11.3964 12.7304C11.5543 13.071 11.4492 13.3848 11.1633 13.5099C10.8712 13.6379 10.5808 13.5128 10.4243 13.1685C10.098 12.4512 9.97375 11.6985 10.1 10.9173C10.1408 10.6648 10.0875 10.5465 9.83068 10.4439C8.55732 9.93494 7.63252 9.03863 7.02035 7.81515C6.96563 7.70543 6.9092 7.59656 6.85562 7.49168C3.26127 8.27513 1.24807 12.6621 2.9626 16.0019C3.53658 15.8346 4.10913 15.6679 4.71104 15.4923C4.78514 15.2276 4.84442 14.9035 4.96525 14.6046C5.36738 13.6094 6.08272 12.9758 7.16057 12.7914C7.24949 12.7763 7.34068 12.7703 7.43103 12.7698C7.78869 12.7675 8.02553 12.9613 8.04405 13.2668C8.06286 13.5735 7.84484 13.7727 7.50113 13.8453C7.1352 13.9229 5.66007 14.1657 5.82366 15.9825C5.9633 17.5349 7.18479 17.6953 7.48745 17.7355C7.83999 17.7823 8.06143 17.9909 8.04547 18.2921C8.02866 18.6085 7.76732 18.8256 7.40652 18.8005C6.28136 18.7225 5.51757 18.1211 5.03137 17.1325C4.95699 16.9811 4.90712 16.8181 4.8467 16.6628C3.85036 16.5727 2.0794 17.5588 1.39114 19.2249C0.682927 20.9391 1.20589 23.0016 2.21221 23.862C2.51487 23.4138 2.76823 22.911 3.13673 22.5154C4.3776 21.1834 6.50337 21.1726 7.80038 22.4513C7.85538 22.5055 8.33104 22.9409 7.92407 23.3365C7.69579 23.5585 7.43502 23.5403 7.16142 23.3397C6.83767 23.102 6.51562 22.8158 6.14541 22.695C4.65204 22.2065 3.2057 23.3981 3.22194 24.9704C3.23163 25.9046 3.34877 26.773 3.87202 27.5541C4.53862 28.5496 5.46713 29.1199 6.6604 29.2539C6.59229 28.7129 6.51591 28.2025 6.46774 27.6892C6.44295 27.4242 6.53443 27.1557 6.81943 27.1064C7.00097 27.0751 7.2492 27.1409 7.39027 27.2569C7.49971 27.3472 7.51538 27.5807 7.52906 27.7539C7.66073 29.4417 8.41711 30.7455 9.94924 31.5019C12.2611 32.6433 15.0201 31.401 15.7554 28.9244C15.8435 28.6272 15.8965 28.3196 15.964 28.0247C15.2764 28.1689 14.642 28.3442 13.9959 28.4285ZM17.0436 5.94701C17.037 6.09293 17.1428 6.22032 17.2876 6.24027C17.7085 6.29841 18.1018 6.34002 18.4805 6.43891C19.2007 6.62672 19.9109 6.85643 20.6166 7.09497C21.0141 7.22949 21.1612 7.53928 21.035 7.85562C20.9161 8.15287 20.6097 8.25803 20.2296 8.09787C18.4347 7.34121 17.2599 7.35688 17.0621 7.34519V9.52312C17.0621 9.62629 17.1339 9.71578 17.2348 9.73772C17.2915 9.75026 17.3494 9.76166 17.4078 9.76964C25.0625 10.8216 25.4008 21.9817 17.3731 23.2262C17.1208 23.2653 17.0279 23.3314 17.0353 23.5961C17.0536 24.2719 17.0413 24.9482 17.0413 25.7336C17.8379 25.5595 18.5726 25.4004 19.3062 25.2371C19.4048 25.2152 19.4983 25.1702 19.5952 25.1383C20.0041 25.0043 20.2974 25.1126 20.4068 25.4361C20.5126 25.7487 20.3658 26.046 19.9679 26.1463C19.1104 26.3623 18.2454 26.5572 17.3739 26.7043C17.1707 26.7385 17.0239 26.92 17.0348 27.1255C17.1134 28.6203 16.7273 29.9743 15.7477 31.1288C15.5237 31.393 15.259 31.6227 14.9574 31.9237C15.0999 31.9237 17.2212 31.9268 18.5401 31.9223C19.1637 31.92 19.4886 31.6153 19.5085 30.9943C19.5248 30.4853 19.5199 29.9752 19.5099 29.4656C19.5042 29.1712 19.6809 28.9047 19.954 28.7944C20.8907 28.4165 21.8235 28.0278 22.7549 27.6365C23.0476 27.5137 23.2938 27.5316 23.5252 27.7727C23.8855 28.1481 24.2594 28.5109 24.6316 28.8748C25.0257 29.2604 25.5387 29.2721 25.9303 28.8854C26.9289 27.8984 27.9221 26.9061 28.9099 25.9083C29.2864 25.5281 29.2907 25.0559 28.925 24.6686C28.5676 24.2901 28.1991 23.9213 27.821 23.5634C27.4673 23.2288 27.5844 22.9116 27.876 22.3513C28.3331 21.4729 28.408 21.178 28.7606 20.1845C28.9341 19.6954 29.0829 19.5033 29.4554 19.5062C29.9536 19.5099 30.452 19.5145 30.9502 19.5073C31.6154 19.4976 31.9289 19.1824 31.93 18.5241C31.9326 17.1652 31.9326 15.8064 31.9283 14.4475C31.9263 13.818 31.6316 13.5056 30.9981 13.484C30.4777 13.466 29.9564 13.4746 29.4354 13.4825C29.0829 13.488 28.8774 13.3133 28.7765 12.9203C28.5548 12.0576 28.2011 11.2374 27.756 10.4659C27.5109 10.041 27.5015 9.71749 27.8341 9.41425C28.21 9.07112 28.5614 8.70091 28.9153 8.3347C29.2835 7.95366 29.291 7.47259 28.9202 7.09696C27.9421 6.10604 26.9591 5.11967 25.9693 4.14015C25.5173 3.69299 25.0554 3.70154 24.6028 4.14385C24.2545 4.48414 23.906 4.8247 23.5714 5.1781C23.2502 5.51724 22.9746 5.3736 22.387 5.11996C21.5209 4.74605 20.905 4.51634 20.1666 4.21824C19.7245 4.03983 19.5108 3.93068 19.5111 3.57985C19.5119 3.08168 19.5168 2.58322 19.5102 2.08505C19.5008 1.37114 19.1987 1.0719 18.4931 1.07047C17.1337 1.06762 15.1926 1.07874 14.964 1.09099C16.5386 2.41622 17.1288 4.05921 17.0436 5.94701ZM22.2274 16.3636C22.1564 13.2426 19.5966 10.9732 17.053 10.8181V22.1669C19.6778 22.0159 22.3012 19.6099 22.2274 16.3636Z" fill="#1A70B9"/>
<path d="M23.252 22.911C23.3782 23.0583 23.4757 23.255 23.633 23.3362C23.8693 23.4585 24.1158 23.3912 24.3019 23.1715C24.9197 22.4422 25.4456 21.653 25.8317 20.7781C26.0138 20.3649 26.1674 19.9382 26.3154 19.5113C26.4465 19.1328 26.3211 18.8364 26.0113 18.7244C25.7029 18.6133 25.4091 18.7732 25.2919 19.1568C24.916 20.3865 24.3099 21.4863 23.4782 22.4661C23.3879 22.5727 23.3466 22.7206 23.252 22.911Z" fill="#1A70B9"/>
<path d="M26.0165 14.9625C26.3852 14.9546 26.6004 14.6545 26.5138 14.2446C26.2536 13.012 25.7571 11.8781 25.0629 10.8296C24.9506 10.66 24.8349 10.491 24.7029 10.3371C24.5037 10.1045 24.2016 10.0689 23.9745 10.2319C23.7328 10.4055 23.6869 10.7081 23.8485 10.9863C24.2176 11.6204 24.62 12.2391 24.9343 12.8995C25.1703 13.3951 25.2988 13.9431 25.4587 14.4726C25.5579 14.8007 25.7292 14.9685 26.0165 14.9625Z" fill="#1A70B9"/>
<path d="M21.7983 8.71713C21.7992 9.12838 22.6297 9.76648 23.0252 9.65989C23.4148 9.55473 23.5462 9.06596 23.247 8.76586C23.0574 8.57606 22.8417 8.40392 22.6131 8.26342C22.2352 8.03086 21.7972 8.28536 21.7983 8.71713Z" fill="#1A70B9"/>
<path d="M25.6705 16.8708C25.6705 16.9948 25.6577 17.1202 25.6731 17.2425C25.7084 17.5226 25.8715 17.7044 26.1545 17.7241C26.4471 17.7446 26.6692 17.5981 26.7205 17.3034C26.7663 17.0393 26.7706 16.7642 26.7612 16.4952C26.7501 16.1695 26.5221 15.9588 26.2243 15.9594C25.9384 15.96 25.7261 16.1549 25.6911 16.4656C25.676 16.5989 25.6885 16.7357 25.6885 16.8708C25.6825 16.8708 25.6765 16.8708 25.6705 16.8708Z" fill="#1A70B9"/>
<path d="M21.2251 24.6184C21.224 25.071 21.6147 25.3363 21.9823 25.1539C22.2405 25.0257 22.4788 24.8453 22.6999 24.6578C22.9063 24.4828 22.906 24.2354 22.7877 24.0088C22.6692 23.7817 22.4286 23.6705 22.2166 23.7754C21.8917 23.9361 21.6004 24.1698 21.31 24.3921C21.2445 24.4423 21.2405 24.5734 21.2251 24.6184Z" fill="#1A70B9"/>
<path d="M46.7123 8.43493C46.9001 8.54226 47.0537 8.68985 47.1744 8.8762L51.3724 15.4445L55.5511 8.85682C55.6718 8.66898 55.8284 8.52587 56.0236 8.42449C56.2174 8.32461 56.4157 8.27393 56.617 8.27393C56.9241 8.27393 57.1894 8.37381 57.4101 8.57506C57.6307 8.77631 57.741 9.05062 57.741 9.39797V20.0227C57.741 20.3581 57.6203 20.6145 57.3788 20.7964C57.1373 20.9783 56.863 21.0677 56.5559 21.0677C56.2338 21.0677 55.9625 20.9768 55.7419 20.7964C55.5213 20.616 55.4109 20.3581 55.4109 20.0227V13.2531L52.4175 17.9326C52.3101 18.1205 52.1626 18.2636 51.9762 18.3649C51.7884 18.4648 51.5871 18.5155 51.3739 18.5155C51.1593 18.5155 50.9521 18.4589 50.7508 18.3441C50.5495 18.2308 50.396 18.0728 50.2887 17.8715L47.3354 13.2725V20.0212C47.3354 20.3566 47.2177 20.613 46.9836 20.7949C46.7496 20.9753 46.4783 21.0662 46.1697 21.0662C45.8477 21.0662 45.5734 20.9753 45.3468 20.7949C45.1187 20.6145 45.0054 20.3566 45.0054 20.0212V9.41884C45.0054 9.0849 45.1187 8.80911 45.3468 8.59593C45.5748 8.38126 45.8417 8.27393 46.1503 8.27393C46.3381 8.27393 46.526 8.32759 46.7123 8.43493Z" fill="#1A70B8"/>
<path d="M62.55 10.0823C62.316 10.2567 62.0447 10.3431 61.7361 10.3431C61.4141 10.3431 61.1398 10.2567 60.9132 10.0823C60.6851 9.90784 60.5718 9.66037 60.5718 9.33985V9.07897C60.5718 8.75696 60.6851 8.5095 60.9132 8.33657C61.1413 8.16215 61.4156 8.07568 61.7361 8.07568C62.0432 8.07568 62.3145 8.16364 62.55 8.33657C62.7841 8.51099 62.9018 8.75845 62.9018 9.07897V9.33985C62.9018 9.66037 62.7841 9.90784 62.55 10.0823ZM60.943 11.1064C61.177 10.932 61.4424 10.8455 61.7361 10.8455C62.0432 10.8455 62.3115 10.9335 62.5396 11.1064C62.7677 11.2808 62.881 11.5149 62.881 11.8101V20.0853C62.881 20.3939 62.7677 20.6339 62.5396 20.8083C62.3115 20.9828 62.0447 21.0692 61.7361 21.0692C61.4409 21.0692 61.177 20.9828 60.943 20.8083C60.7089 20.6339 60.5912 20.3939 60.5912 20.0853V11.8294C60.5912 11.5209 60.7089 11.2808 60.943 11.1064Z" fill="#1A70B8"/>
<path d="M73.9589 11.9696C74.7416 12.8536 75.1336 14.0253 75.1336 15.4848V20.0242C75.1336 20.3462 75.0338 20.5996 74.8325 20.7875C74.6313 20.9753 74.351 21.0692 73.9887 21.0692C73.6533 21.0692 73.379 20.9723 73.1658 20.7785C72.9512 20.5847 72.8438 20.3328 72.8438 20.0257V15.446C72.8438 14.5754 72.6396 13.8927 72.2311 13.3977C71.8226 12.9028 71.2025 12.6553 70.3736 12.6553C69.9845 12.6553 69.5433 12.785 69.0483 13.0474C68.5534 13.3083 68.127 13.7003 67.7722 14.2221C67.4174 14.7439 67.24 15.367 67.24 16.09V20.0465C67.24 20.3686 67.1461 20.619 66.9583 20.7994C66.7704 20.9798 66.4961 21.0707 66.1354 21.0707C65.7746 21.0707 65.4854 20.9798 65.2722 20.7994C65.0575 20.619 64.9502 20.3671 64.9502 20.0465V11.8712C64.9502 11.5492 65.0635 11.2987 65.2916 11.1183C65.5197 10.9379 65.7865 10.847 66.0951 10.847C66.3888 10.847 66.6541 10.9379 66.8882 11.1183C67.1222 11.2987 67.24 11.5372 67.24 11.8309V11.971C68.1911 11.087 69.3495 10.6458 70.715 10.6458C72.094 10.6443 73.1748 11.0855 73.9589 11.9696Z" fill="#1A70B8"/>
<path d="M87.075 8.33506C87.3091 8.50948 87.4268 8.75695 87.4268 9.07746V20.0451C87.4268 20.3671 87.3269 20.6175 87.1257 20.7979C86.9244 20.9783 86.6367 21.0692 86.2625 21.0692C85.5663 21.0692 85.2041 20.7472 85.1773 20.1047C84.7613 20.4804 84.2858 20.7636 83.7506 20.9589C83.2154 21.1527 82.6996 21.2496 82.2047 21.2496C81.2133 21.2496 80.3531 21.0215 79.6241 20.5668C78.8937 20.1121 78.3316 19.4756 77.9366 18.6586C77.5415 17.8417 77.3433 16.904 77.3433 15.847C77.3433 14.8423 77.5505 13.9463 77.9664 13.1562C78.3808 12.3661 78.9637 11.7504 79.7136 11.3077C80.4634 10.8664 81.3206 10.6443 82.2852 10.6443C82.7398 10.6443 83.2229 10.7352 83.7312 10.9156C84.2396 11.096 84.7077 11.3539 85.137 11.6893V9.07746C85.137 8.74353 85.2473 8.49159 85.468 8.32462C85.6886 8.15766 85.9525 8.07418 86.261 8.07418C86.5696 8.07269 86.841 8.16064 87.075 8.33506ZM84.092 18.7585C84.6272 18.4499 84.9894 18.0146 85.1773 17.4526L85.1579 14.3593C84.9298 13.8375 84.5645 13.4245 84.0637 13.1234C83.5613 12.8223 83.0216 12.6717 82.4462 12.6717C81.6158 12.6717 80.9405 12.9728 80.4172 13.5751C79.8955 14.1774 79.6346 14.9407 79.6346 15.8649C79.6346 16.8563 79.8761 17.6628 80.3576 18.2859C80.8391 18.9091 81.4757 19.2207 82.2658 19.2207C82.9471 19.2207 83.5568 19.0671 84.092 18.7585Z" fill="#1A70B8"/>
<path d="M102.37 8.63618L108.055 19.7842C108.162 19.9586 108.216 20.139 108.216 20.3268C108.216 20.6086 108.095 20.8352 107.853 21.0096C107.612 21.184 107.331 21.2705 107.009 21.2705C106.808 21.2705 106.611 21.2198 106.416 21.1199C106.222 21.02 106.078 20.8754 105.984 20.6876L104.578 17.8954H98.1111L96.7053 20.6876C96.6114 20.8888 96.4742 21.0364 96.2938 21.1288C96.1135 21.2213 95.9152 21.269 95.7005 21.269C95.3919 21.269 95.1117 21.1691 94.8567 20.9678C94.6033 20.7666 94.4751 20.5266 94.4751 20.2448C94.4751 20.1375 94.5079 20.0033 94.575 19.8438L100.3 8.63618C100.393 8.42151 100.523 8.27393 100.692 8.19492C100.859 8.11442 101.076 8.07417 101.345 8.07417C101.841 8.07268 102.182 8.26051 102.37 8.63618ZM99.0965 15.9469H103.596L101.346 11.4672L99.0965 15.9469Z" fill="#1A70B8"/>
<path d="M108.998 18.4171C108.998 18.1354 109.122 17.9013 109.369 17.7135C109.617 17.5257 109.888 17.4317 110.183 17.4317C110.425 17.4317 110.638 17.5018 110.826 17.6419C111.014 17.7821 111.154 17.9938 111.248 18.274C111.355 18.6094 111.653 18.8629 112.142 19.0373C112.631 19.2117 113.177 19.2982 113.779 19.2982C114.502 19.2982 115.085 19.167 115.526 18.9061C115.967 18.6452 116.19 18.3128 116.19 17.9118C116.19 17.5376 115.988 17.2886 115.587 17.1694C115.186 17.0486 114.556 16.9547 113.7 16.8876C112.695 16.7937 111.889 16.6774 111.279 16.5358C110.669 16.3957 110.153 16.1169 109.733 15.7024C109.311 15.288 109.101 14.6708 109.101 13.8539C109.101 13.2114 109.289 12.6494 109.663 12.1663C110.037 11.6848 110.566 11.3092 111.249 11.0408C111.932 10.7725 112.722 10.6383 113.619 10.6383C116.057 10.6383 117.557 11.3688 118.119 12.8282C118.159 12.949 118.178 13.0563 118.178 13.1503C118.178 13.4588 118.054 13.7063 117.807 13.8942C117.56 14.082 117.288 14.1759 116.993 14.1759C116.752 14.1759 116.552 14.1297 116.391 14.0358C116.23 13.9419 116.103 13.7809 116.009 13.5543C115.727 12.9386 114.931 12.63 113.619 12.63C112.95 12.63 112.41 12.7433 112.002 12.9714C111.593 13.1995 111.389 13.5006 111.389 13.8748C111.389 14.2236 111.51 14.4472 111.751 14.5471C111.993 14.647 112.415 14.7245 113.017 14.7782C113.271 14.7782 113.539 14.799 113.821 14.8378C114.906 14.9586 115.739 15.0883 116.321 15.2299C116.904 15.37 117.409 15.6488 117.837 16.0632C118.265 16.4777 118.479 17.0948 118.479 17.9103C118.479 18.5662 118.281 19.1491 117.886 19.6575C117.491 20.1658 116.938 20.5609 116.228 20.8426C115.519 21.1244 114.702 21.2645 113.777 21.2645C112.665 21.2645 111.662 21.0797 110.765 20.7129C109.867 20.3447 109.292 19.6649 109.037 18.6736C109.011 18.5722 108.998 18.4842 108.998 18.4171Z" fill="#1A70B8"/>
<path d="M136.275 19.3816C136.476 19.5963 136.576 19.8363 136.576 20.1047C136.576 20.373 136.479 20.5996 136.285 20.7874C136.091 20.9753 135.82 21.0692 135.471 21.0692H127.497C127.108 21.0692 126.791 20.9514 126.543 20.7174C126.296 20.4833 126.172 20.1986 126.172 19.8632V9.45909C126.172 9.12516 126.296 8.8434 126.543 8.61531C126.791 8.38723 127.108 8.27393 127.497 8.27393H135.471C135.819 8.27393 136.084 8.36784 136.264 8.55568C136.445 8.74352 136.536 8.97012 136.536 9.23845C136.536 9.49338 136.439 9.72444 136.245 9.93166C136.051 10.1389 135.793 10.2432 135.471 10.2432H128.462V13.7585H135.111C135.433 13.7585 135.686 13.8583 135.874 14.0596C136.062 14.2609 136.156 14.4949 136.156 14.7632C136.156 15.0316 136.065 15.2582 135.884 15.446C135.704 15.6339 135.446 15.7278 135.111 15.7278H128.462V19.0626H135.471C135.805 19.0596 136.074 19.167 136.275 19.3816Z" fill="#1A70B8"/>
<path d="M147.853 11.9696C148.636 12.8536 149.028 14.0253 149.028 15.4848V20.0242C149.028 20.3462 148.928 20.5996 148.727 20.7875C148.526 20.9753 148.246 21.0692 147.883 21.0692C147.548 21.0692 147.274 20.9723 147.06 20.7785C146.846 20.5847 146.738 20.3328 146.738 20.0257V15.446C146.738 14.5754 146.534 13.8927 146.126 13.3977C145.717 12.9028 145.097 12.6553 144.268 12.6553C143.879 12.6553 143.438 12.785 142.943 13.0474C142.448 13.3083 142.022 13.7003 141.668 14.2221C141.313 14.7439 141.136 15.367 141.136 16.09V20.0465C141.136 20.3686 141.042 20.619 140.854 20.7994C140.666 20.9798 140.392 21.0707 140.03 21.0707C139.668 21.0707 139.38 20.9798 139.167 20.7994C138.952 20.619 138.845 20.3671 138.845 20.0465V11.8712C138.845 11.5492 138.958 11.2987 139.186 11.1183C139.414 10.9379 139.681 10.847 139.99 10.847C140.285 10.847 140.549 10.9379 140.783 11.1183C141.017 11.2987 141.135 11.5372 141.135 11.8309V11.971C142.086 11.087 143.244 10.6458 144.61 10.6458C145.989 10.6443 147.069 11.0855 147.853 11.9696Z" fill="#1A70B8"/>
<path d="M161.02 11.1765C161.235 11.3971 161.342 11.6684 161.342 11.9904V20.4461C161.342 21.3972 161.122 22.2096 160.679 22.8865C160.236 23.5618 159.631 24.0716 158.86 24.413C158.091 24.7544 157.231 24.9258 156.28 24.9258C155.463 24.9258 154.743 24.8215 154.121 24.6143C153.498 24.407 152.925 24.0552 152.404 23.5603C152.149 23.3054 152.022 23.0311 152.022 22.7374C152.022 22.4556 152.132 22.2082 152.353 21.9935C152.574 21.7788 152.831 21.6715 153.127 21.6715C153.393 21.6715 153.656 21.7788 153.909 21.9935C154.297 22.3408 154.665 22.5734 155.014 22.6867C155.361 22.8 155.783 22.8581 156.28 22.8581C157.07 22.8581 157.736 22.6539 158.279 22.2454C158.821 21.837 159.093 21.2377 159.093 20.4476V20.2672C158.665 20.5892 158.179 20.8367 157.636 21.0096C157.094 21.184 156.582 21.2705 156.099 21.2705C155.135 21.2705 154.285 21.0498 153.548 20.6071C152.812 20.1658 152.243 19.5427 151.842 18.7391C151.441 17.9356 151.239 16.9979 151.239 15.9275C151.239 14.8959 151.446 13.9821 151.862 13.186C152.277 12.39 152.857 11.7668 153.601 11.3181C154.343 10.8694 155.203 10.6458 156.181 10.6458C156.676 10.6458 157.178 10.7188 157.687 10.8664C158.195 11.014 158.665 11.2421 159.093 11.5492C159.24 11.0811 159.601 10.847 160.178 10.847C160.524 10.8455 160.806 10.9558 161.02 11.1765ZM157.946 18.8196C158.495 18.5379 158.871 18.1428 159.07 17.6345V14.2802C158.829 13.7853 158.452 13.3932 157.936 13.1055C157.42 12.8178 156.888 12.6732 156.339 12.6732C155.495 12.6732 154.816 12.9773 154.3 13.587C153.784 14.1968 153.526 14.9824 153.526 15.9469C153.526 16.9383 153.768 17.7344 154.249 18.3366C154.731 18.9389 155.367 19.24 156.157 19.24C156.801 19.2415 157.398 19.0999 157.946 18.8196Z" fill="#1A70B8"/>
<path d="M165.869 10.0823C165.635 10.2567 165.364 10.3431 165.055 10.3431C164.733 10.3431 164.459 10.2567 164.233 10.0823C164.004 9.90784 163.891 9.66037 163.891 9.33985V9.07897C163.891 8.75696 164.004 8.5095 164.233 8.33657C164.461 8.16215 164.735 8.07568 165.055 8.07568C165.364 8.07568 165.635 8.16364 165.869 8.33657C166.103 8.51099 166.221 8.75845 166.221 9.07897V9.33985C166.221 9.66037 166.103 9.90784 165.869 10.0823ZM164.264 11.1064C164.498 10.932 164.763 10.8455 165.057 10.8455C165.365 10.8455 165.632 10.9335 165.86 11.1064C166.089 11.2808 166.202 11.5149 166.202 11.8101V20.0853C166.202 20.3939 166.089 20.6339 165.86 20.8083C165.632 20.9828 165.365 21.0692 165.057 21.0692C164.762 21.0692 164.498 20.9828 164.264 20.8083C164.03 20.6339 163.912 20.3939 163.912 20.0853V11.8294C163.912 11.5209 164.028 11.2808 164.264 11.1064Z" fill="#1A70B8"/>
<path d="M177.278 11.9696C178.061 12.8536 178.453 14.0253 178.453 15.4848V20.0242C178.453 20.3462 178.352 20.5996 178.152 20.7875C177.951 20.9753 177.67 21.0692 177.308 21.0692C176.973 21.0692 176.698 20.9723 176.484 20.7785C176.269 20.5847 176.163 20.3328 176.163 20.0257V15.446C176.163 14.5754 175.959 13.8927 175.55 13.3977C175.142 12.9028 174.523 12.6553 173.693 12.6553C173.304 12.6553 172.863 12.785 172.368 13.0474C171.873 13.3083 171.446 13.7003 171.092 14.2221C170.737 14.7439 170.559 15.367 170.559 16.09V20.0465C170.559 20.3686 170.465 20.619 170.278 20.7994C170.09 20.9798 169.815 21.0707 169.453 21.0707C169.091 21.0707 168.803 20.9798 168.59 20.7994C168.377 20.619 168.27 20.3671 168.27 20.0465V11.8712C168.27 11.5492 168.383 11.2987 168.611 11.1183C168.839 10.9379 169.106 10.847 169.414 10.847C169.708 10.847 169.973 10.9379 170.208 11.1183C170.442 11.2987 170.559 11.5372 170.559 11.8309V11.971C171.51 11.087 172.669 10.6458 174.034 10.6458C175.413 10.6443 176.496 11.0855 177.278 11.9696Z" fill="#1A70B8"/>
<path d="M188.155 18.5782C188.449 18.3232 188.75 18.1965 189.059 18.1965C189.34 18.1965 189.577 18.2964 189.771 18.4977C189.965 18.6989 190.062 18.933 190.062 19.2013C190.062 19.5099 189.928 19.7976 189.661 20.0645C189.22 20.4938 188.68 20.8039 188.043 20.9992C187.407 21.193 186.734 21.2839 186.025 21.2705C184.98 21.2705 184.057 21.0558 183.253 20.628C182.45 20.2001 181.827 19.6008 181.386 18.8301C180.944 18.0609 180.722 17.1798 180.722 16.1885C180.722 15.0913 180.937 14.1237 181.365 13.2859C181.793 12.4496 182.402 11.7996 183.192 11.3375C183.982 10.8754 184.907 10.6443 185.964 10.6443C187.544 10.6443 188.775 11.1198 189.659 12.071C190.543 13.0221 190.991 14.2877 191.005 15.8665C191.005 16.269 190.925 16.5701 190.764 16.7699C190.603 16.9711 190.262 17.071 189.74 17.071H183.051C183.239 17.7269 183.593 18.2591 184.115 18.6676C184.637 19.0761 185.253 19.2803 185.962 19.2803C186.822 19.2818 187.553 19.0478 188.155 18.5782ZM184.038 13.356C183.516 13.8375 183.18 14.48 183.033 15.2836H188.878C188.798 14.4532 188.523 13.8047 188.054 13.3351C187.586 12.867 186.895 12.6315 185.985 12.6315C185.209 12.633 184.559 12.8745 184.038 13.356Z" fill="#1A70B8"/>
</svg>
