<svg width="25" height="25" viewBox="0 0 25 25" fill="none" xmlns="http://www.w3.org/2000/svg">
<path d="M3.18262 6.5H5.18262H21.1826" stroke="#F10808" stroke-width="2" stroke-linecap="round" stroke-linejoin="round"/>
<path d="M19.1826 6.5V20.5C19.1826 21.0304 18.9719 21.5391 18.5968 21.9142C18.2218 22.2893 17.7131 22.5 17.1826 22.5H7.18262C6.65218 22.5 6.14348 22.2893 5.7684 21.9142C5.39333 21.5391 5.18262 21.0304 5.18262 20.5V6.5M8.18262 6.5V4.5C8.18262 3.96957 8.39333 3.46086 8.7684 3.08579C9.14348 2.71071 9.65218 2.5 10.1826 2.5H14.1826C14.7131 2.5 15.2218 2.71071 15.5968 3.08579C15.9719 3.46086 16.1826 3.96957 16.1826 4.5V6.5" stroke="#F10808" stroke-width="2" stroke-linecap="round" stroke-linejoin="round"/>
<path d="M10.1826 11.5V17.5" stroke="#F10808" stroke-width="2" stroke-linecap="round" stroke-linejoin="round"/>
<path d="M14.1826 11.5V17.5" stroke="#F10808" stroke-width="2" stroke-linecap="round" stroke-linejoin="round"/>
</svg>
