<svg width="22" height="23" viewBox="0 0 22 23" fill="none" xmlns="http://www.w3.org/2000/svg">
<path d="M20.621 10.8059L11.431 19.9959C10.3051 21.1217 8.77814 21.7542 7.18595 21.7542C5.59377 21.7542 4.0668 21.1217 2.94095 19.9959C1.81511 18.8701 1.18262 17.3431 1.18262 15.7509C1.18262 14.1587 1.81511 12.6317 2.94095 11.5059L12.131 2.3159C12.8815 1.56534 13.8995 1.14368 14.961 1.14368C16.0224 1.14368 17.0404 1.56534 17.791 2.3159C18.5415 3.06646 18.9632 4.08444 18.9632 5.1459C18.9632 6.20736 18.5415 7.22534 17.791 7.9759L8.59095 17.1659C8.21567 17.5412 7.70668 17.752 7.17595 17.752C6.64523 17.752 6.13624 17.5412 5.76095 17.1659C5.38567 16.7906 5.17484 16.2816 5.17484 15.7509C5.17484 15.2202 5.38567 14.7112 5.76095 14.3359L14.251 5.8559" stroke="#515151" stroke-width="2" stroke-linecap="round" stroke-linejoin="round"/>
</svg>
